<svg xmlns="http://www.w3.org/2000/svg" width="19.156" height="17.047" viewBox="0 0 19.156 17.047"><path d="M9.578,0C4.291.005.006,3.818,0,8.524v6.7a1.949,1.949,0,0,0,2.052,1.826H4.789a.65.65,0,0,0,.684-.609V10.35a.65.65,0,0,0-.684-.609H2.052a2.255,2.255,0,0,0-.684.112V8.524c0-4.035,3.676-7.306,8.21-7.306s8.21,3.271,8.21,7.306v1.33a2.253,2.253,0,0,0-.684-.112H14.367a.65.65,0,0,0-.684.609v6.088a.65.65,0,0,0,.684.609H17.1a1.949,1.949,0,0,0,2.052-1.826v-6.7C19.15,3.818,14.865.005,9.578,0ZM2.052,10.959H4.1V15.83H2.052a.65.65,0,0,1-.684-.609V11.568A.65.65,0,0,1,2.052,10.959Zm15.735,4.262a.65.65,0,0,1-.684.609H15.051V10.959H17.1a.65.65,0,0,1,.684.609Z" fill="#424242"/></svg>